# xmcd
#
# Track frame offsets:
#	150
#	20123
#	44800
#	66995
#	83755
#	103918
#	118454
#	137525
#	155623
#	175051
#	195024
#	219701
#	241896
#	258656
#	278819
#	293355
#	312426
#	330524
#
# Disc length: 4666 seconds
#
# Revision: 1
# Processed by: cddbd v1.5.2PL0 Copyright (c) Steve Scherf et al.
# Submitted via: audiograbber 1.83.01
#
DISCID=0f123812
DTITLE=Various Artist - 0910- 2090-10
DYEAR=2009
DGENRE=Country
TTITLE0=Keith Urban - Only You Can Love Me This Way
TTITLE1=Brad Paisley - Welcome To The Future
TTITLE2=Alan Jackson - I Still Like Bologna
TTITLE3=Sarah Buxton - Outside My Window
TTITLE4=Zack Brown Band - Toes
TTITLE5=Josh Thompson - Beer On The Table
TTITLE6=Jason Michael Carroll - Hurry Home
TTITLE7=Gary Allan - Today
TTITLE8=Jamie O'Neal - Soldier Comin' Home
TTITLE9=Keith Urban - Only You Can Love Me This Way-vocal
TTITLE10=Brad Paisley - Welcome To The Future-vocal
TTITLE11=Alan Jackson - I Still Like Bologna-vocal
TTITLE12=Sarah Buxton - Outside My Window-vocal
TTITLE13=Zack Brown Band - Toes-vocal
TTITLE14=Josh Thompson - Beer On The Table-vocal
TTITLE15=Jason Michael Carroll - Hurry Home-vocal
TTITLE16=Gary Allan - Today-vocal
TTITLE17=Jamie O'Neal - Soldier Comin' Home-vocal
EXTD=
EXTT0=
EXTT1=
EXTT2=
EXTT3=
EXTT4=
EXTT5=
EXTT6=
EXTT7=
EXTT8=
EXTT9=
EXTT10=
EXTT11=
EXTT12=
EXTT13=
EXTT14=
EXTT15=
EXTT16=
EXTT17=
PLAYORDER=
